<svg width="23" height="23" viewBox="0 0 23 23" fill="none" xmlns="http://www.w3.org/2000/svg">
<path d="M22.2412 11.017C22.0802 10.764 18.1932 4.57703 11.5232 4.57703C5.2672 4.57703 1.01221 10.741 0.828205 10.994L0.460205 11.523L0.851205 12.052C1.05821 12.305 5.79621 18.423 11.5232 18.423C17.7792 18.423 22.0342 12.259 22.2182 12.006L22.5402 11.523L22.2412 11.017ZM11.5232 16.606C7.59021 16.606 3.95621 12.88 2.73721 11.477C3.86421 10.074 7.22221 6.39403 11.5232 6.39403C16.1462 6.39403 19.3432 10.12 20.3552 11.477C19.2512 12.857 15.8932 16.606 11.5232 16.606Z" fill="#4F4F4F"/>
<path d="M11.5231 7.35999C9.24606 7.35999 7.38306 9.22299 7.38306 11.5C7.38306 13.777 9.24606 15.64 11.5231 15.64C13.8001 15.64 15.6631 13.777 15.6631 11.5C15.6631 9.22299 13.8001 7.35999 11.5231 7.35999ZM11.5231 13.823C10.2351 13.823 9.20006 12.788 9.20006 11.5C9.20006 10.212 10.2351 9.17699 11.5231 9.17699C12.8111 9.17699 13.8461 10.212 13.8461 11.5C13.8461 12.788 12.8111 13.823 11.5231 13.823Z" fill="#4F4F4F"/>
</svg>
